<?xml version="1.0" standalone="no"?>
<svg viewBox="0 0 200 200" xmlns="http://www.w3.org/2000/svg">
  <path fill="#FF3838" d="M42.5,-74.4C55.5,-66,67,-55.6,74.4,-42.9C81.8,-30.2,85.1,-15.1,84.8,-0.2C84.5,14.7,80.5,29.5,73.5,42.8C66.5,56.2,56.4,68.2,43.6,75.9C30.9,83.6,15.4,87,-0.5,87.8C-16.4,88.6,-32.7,86.8,-46.9,79.9C-61.1,73,-73.1,61.1,-80.5,46.9C-87.9,32.8,-90.7,16.4,-90.5,0.1C-90.3,-16.2,-87.2,-32.4,-79.8,-46.5C-72.3,-60.5,-60.6,-72.5,-46.5,-80.4C-32.5,-88.2,-16.3,-92,-0.8,-90.6C14.7,-89.3,29.4,-82.8,42.5,-74.4Z" transform="translate(100 100)" />
</svg>
